<?xml version="1.0" encoding="UTF-8"?>
<svg id="Layer_2" data-name="Layer 2" xmlns="http://www.w3.org/2000/svg" viewBox="0 0 41.4 50.72">
  <defs>
    <style>
      .cls-1 {
        fill: #ffffff;
      }
    </style>
  </defs>
  <g id="Layer_1-2" data-name="Layer 1">
    <rect class="cls-1" x="7.88" y="48.69" width="24.87" height="2.02"/>
    <rect class="cls-1" x="14.41" y="42.71" width="11.27" height="2.02" transform="translate(-23.67 63.77) rotate(-90)"/>
    <rect class="cls-1" x="16" y="37.63" width="7.49" height="2.02"/>
    <rect class="cls-1" x="28.16" y="28.19" width="7.49" height="2.02"/>
    <rect class="cls-1" x="15.33" y="29.46" width="14.32" height="2.02" transform="translate(-7.99 52.96) rotate(-90)"/>
    <rect class="cls-1" x="23.34" y="23.31" width="8.57" height="2.02"/>
    <rect class="cls-1" x="21.57" y="32.91" width="8.32" height="2.02"/>
    <rect class="cls-1" x="25.65" y="30.4" width="6.44" height="2.02" transform="translate(60.28 2.54) rotate(90)"/>
    <rect class="cls-1" x="27.67" y="21.1" width="6.44" height="2.02" transform="translate(53.01 -8.78) rotate(90)"/>
    <rect class="cls-1" x="1.16" y="22.64" width="19.5" height="2.02" transform="translate(-12.74 34.57) rotate(-90)"/>
    <rect class="cls-1" x="10.69" y="21.63" width="13.11" height="2.02" transform="translate(-5.4 39.89) rotate(-90)"/>
    <rect class="cls-1" x="15.47" y="10.7" width="12.81" height="2.02" transform="translate(10.17 33.58) rotate(-90)"/>
    <rect class="cls-1" x="17.32" y="16.09" width="5.11" height="2.02"/>
    <rect class="cls-1" x="16.3" y="27.18" width="7.2" height="2.02"/>
    <rect class="cls-1" x="10.77" y="31.38" width="7.26" height="2.02"/>
    <rect class="cls-1" x="13.79" y="35.27" width="6.44" height="2.02" transform="translate(53.29 19.26) rotate(90)"/>
    <path class="cls-1" d="M21.88,0c-1.76,0-3.18,1.42-3.18,3.18s1.42,3.18,3.18,3.18,3.18-1.42,3.18-3.18-1.42-3.18-3.18-3.18Zm0,4.99c-1,0-1.81-.81-1.81-1.81s.81-1.81,1.81-1.81,1.81,.81,1.81,1.81-.81,1.81-1.81,1.81Z"/>
    <rect class="cls-1" x="5.72" y="24.46" width="5.9" height="2.02"/>
    <path class="cls-1" d="M30.89,12.91c-1.76,0-3.18,1.42-3.18,3.18s1.42,3.18,3.18,3.18,3.18-1.42,3.18-3.18-1.42-3.18-3.18-3.18Zm0,4.99c-1,0-1.81-.81-1.81-1.81s.81-1.81,1.81-1.81,1.81,.81,1.81,1.81-.81,1.81-1.81,1.81Z"/>
    <path class="cls-1" d="M10.92,7.99c-1.76,0-3.18,1.42-3.18,3.18s1.42,3.18,3.18,3.18,3.18-1.42,3.18-3.18-1.42-3.18-3.18-3.18Zm0,4.99c-1,0-1.81-.81-1.81-1.81s.81-1.81,1.81-1.81,1.81,.81,1.81,1.81-.81,1.81-1.81,1.81Z"/>
    <path class="cls-1" d="M38.22,26.02c-1.76,0-3.18,1.42-3.18,3.18s1.42,3.18,3.18,3.18,3.18-1.42,3.18-3.18-1.42-3.18-3.18-3.18Zm0,4.99c-1,0-1.81-.81-1.81-1.81s.81-1.81,1.81-1.81,1.81,.81,1.81,1.81-.81,1.81-1.81,1.81Z"/>
    <path class="cls-1" d="M3.18,22.16c-1.76,0-3.18,1.42-3.18,3.18s1.42,3.18,3.18,3.18,3.18-1.42,3.18-3.18-1.42-3.18-3.18-3.18Zm0,4.99c-1,0-1.81-.81-1.81-1.81s.81-1.81,1.81-1.81,1.81,.81,1.81,1.81-.81,1.81-1.81,1.81Z"/>
  </g>
</svg>